<svg width="476" height="471" viewBox="0 0 476 471" fill="none" xmlns="http://www.w3.org/2000/svg">
<path d="M194.967 29.0593C199.726 31.7925 205.483 31.6839 210.496 29.9342C214.748 28.4077 218.463 25.4151 221.647 22.2294C222.611 21.252 223.545 20.2323 224.462 19.1886C224.589 19.3635 224.716 19.5264 224.837 19.7074C233.969 33.2466 235.21 51.7271 227.474 66.5031C224.785 72.5124 221.445 79.2216 223.118 86.0757C224.982 93.5029 230.733 97.0204 237.817 96.6584V96.5015C235.735 96.4231 233.646 96.0912 231.748 95.2526C225.962 92.8814 223.372 85.6171 225.085 79.6138C226.683 73.4416 230.814 68.12 233.565 62.2917C235.919 57.3503 237.373 52.0167 237.967 46.5564C238.561 52.0167 240.015 57.3503 242.369 62.2917C245.12 68.12 249.251 73.4416 250.849 79.6138C252.562 85.6171 249.972 92.8814 244.186 95.2526C242.288 96.0912 240.2 96.4231 238.117 96.5015V96.6584C245.201 97.0204 250.953 93.5029 252.816 86.0757C254.489 79.2216 251.149 72.5124 248.46 66.5031C240.725 51.7271 241.965 33.2466 251.097 19.7074C251.218 19.5325 251.351 19.3635 251.472 19.1886C252.389 20.2323 253.318 21.252 254.287 22.2294C257.471 25.4151 261.186 28.4077 265.438 29.9342C270.451 31.6839 276.208 31.7925 280.967 29.0593C287.446 25.4392 290.353 16.3347 287.123 9.34796C283.904 2.15606 275.51 -0.450399 268.686 0.062446C258.677 0.750262 251.489 4.96766 246.482 11.695C244.076 9.5169 241.198 7.16384 238.469 5.69168C239.028 5.37794 239.594 5.07626 240.188 4.80476C241.774 4.11091 243.759 4.20141 245.011 5.41414C243.332 3.6403 240.753 4.03247 237.967 5.43224C235.175 4.02644 232.602 3.6403 230.923 5.41414C232.175 4.20141 234.16 4.11091 235.746 4.80476C236.334 5.07626 236.906 5.37794 237.465 5.69168C234.737 7.16988 231.858 9.52293 229.452 11.695C224.445 4.96766 217.257 0.756296 207.248 0.062446C200.424 -0.450399 192.03 2.15606 188.811 9.34796C185.581 16.3347 188.488 25.4392 194.967 29.0593ZM258.815 12.6905C264.042 10.1926 276.006 8.2921 278.089 15.7495C279.929 21.9941 274.333 24.8057 269.245 25.2703C262.836 25.7711 257.454 21.8916 252.706 17.6018C254.523 15.4599 256.589 13.7524 258.815 12.6905ZM237.967 5.98732C240.909 7.75513 243.424 10.1082 245.778 12.6724C242.801 16.9924 240.65 22.2656 239.178 28.2508C238.619 30.5375 238.221 32.8604 237.967 35.1893C237.713 32.8604 237.315 30.5375 236.756 28.2508C235.285 22.2656 233.133 16.9924 230.156 12.6724C232.51 10.1082 235.025 7.74909 237.967 5.98732ZM197.845 15.7495C199.928 8.2921 211.892 10.1926 217.119 12.6905C219.345 13.7524 221.411 15.4599 223.228 17.6018C218.486 21.8916 213.104 25.7711 206.689 25.2703C201.601 24.8057 196.005 21.9941 197.845 15.7495Z" fill="black"/>
<path d="M245.011 5.40808C245.097 5.49858 245.184 5.58305 245.265 5.68562C245.184 5.58305 245.103 5.49255 245.011 5.40808Z" fill="black"/>
<path d="M245.27 5.68567C245.415 5.87271 245.553 6.07785 245.686 6.30108C245.565 6.07181 245.426 5.87271 245.27 5.68567Z" fill="black"/>
<path d="M201.953 332.742H216.375V317.659V302.858H216.38V317.659V332.742H230.802H245.224H259.646H274.068V317.659V302.575H267.468C260.038 285.247 255.85 266.646 252.845 248.074C250.07 229.733 247.595 211.288 246.089 192.778C325.802 191.758 326.668 175.793 326.668 175.793C326.668 175.793 321.164 146.296 287.451 146.296C255.366 146.296 239.536 126.615 238.077 124.714C238.279 119.32 238.896 112.364 242.721 108.406C244.647 106.505 247.405 106.535 249.851 107.006C256.462 108.508 261.769 113.365 267.174 117.456C279.421 126.91 295.805 124.135 305.029 111.525C310.769 103.832 312.903 93.708 311.923 84.1208C310.757 71.0463 301.106 61.5798 288.49 61.1755V46.1281H274.068V61.2117H288.467V76.3497C290.319 76.1989 292.084 76.4101 293.636 77.0013C297.103 78.2804 299.254 81.3092 300.281 85.1707C303.385 96.8756 298.839 111.084 287.296 115.416C282.75 117.154 277.679 116.919 273.11 115.073C268.034 112.913 263.678 109.311 258.538 107.108C253.987 105.081 248.264 103.362 243.54 105.89C240.298 107.899 239.086 111.953 238.434 115.573C238.198 116.985 238.054 118.518 237.967 120.05C237.881 118.518 237.731 116.985 237.494 115.573C236.842 111.953 235.631 107.899 232.389 105.89C227.664 103.362 221.941 105.081 217.39 107.108C212.25 109.311 207.895 112.913 202.818 115.073C198.249 116.919 193.178 117.154 188.633 115.416C177.089 111.084 172.544 96.8756 175.647 85.1707C176.674 81.3092 178.826 78.2804 182.293 77.0013C183.845 76.4101 185.61 76.1989 187.462 76.3497V61.1755C174.834 61.5677 165.171 71.0403 164.006 84.1208C163.025 93.708 165.16 103.832 170.899 111.525C180.124 124.135 196.507 126.91 208.754 117.456C214.159 113.365 219.467 108.508 226.078 107.006C228.524 106.535 231.281 106.505 233.208 108.406C237.027 112.358 237.644 119.296 237.852 124.69C236.502 126.464 220.672 146.296 188.46 146.296C154.747 146.296 149.244 175.793 149.244 175.793C149.244 175.793 150.103 191.764 229.816 192.778C228.789 205.146 227.329 217.491 225.72 229.811C222.386 254.567 218.307 279.551 208.437 302.575H201.953V317.659V332.742Z" fill="black"/>
<path d="M230.802 332.748H216.38V347.832H230.802H245.224H259.646V332.748H245.224H230.802Z" fill="black"/>
<path d="M100.994 151.726H86.5718V166.81H100.994V151.726Z" fill="black"/>
<path d="M115.416 166.816H100.994V181.899H115.416V166.816Z" fill="black"/>
<path d="M129.837 151.738H115.416V166.822H129.837V151.738Z" fill="black"/>
<path d="M144.179 136.63H129.757V151.714H144.179V136.63Z" fill="black"/>
<path d="M274.068 61.2177H259.646V76.3014H274.068V61.2177Z" fill="black"/>
<path d="M230.67 5.67964C230.75 5.57707 230.837 5.4926 230.924 5.4021C230.831 5.4926 230.75 5.58311 230.67 5.67964Z" fill="black"/>
<path d="M230.664 5.68567C230.508 5.87271 230.37 6.07181 230.249 6.30108C230.381 6.07785 230.52 5.87271 230.664 5.68567Z" fill="black"/>
<path d="M201.953 46.134H187.531V61.2177H201.953V46.134Z" fill="black"/>
<path d="M216.38 61.2177H201.958V76.3014H216.38V61.2177Z" fill="black"/>
<path d="M72.1441 227.15H57.7222V242.234H72.1441V227.15Z" fill="black"/>
<path d="M259.646 453.43H245.224V468.514H259.646V453.43Z" fill="black"/>
<path d="M230.797 453.43H216.375V468.514H230.797V453.43Z" fill="black"/>
<path d="M245.224 438.346H230.802V453.43H245.224V438.346Z" fill="black"/>
<path d="M28.8726 332.748H14.4507V347.832H28.8726V332.748Z" fill="black"/>
<path d="M43.3003 362.916V347.832H28.8784V362.916V377.999H43.3003V362.916Z" fill="black"/>
<path d="M115.416 332.748H100.994V347.832H115.416V332.748Z" fill="black"/>
<path d="M100.988 317.659H86.566V332.742H100.988V317.659Z" fill="black"/>
<path d="M28.8784 378.005H14.4565V393.089H28.8784V378.005Z" fill="black"/>
<path d="M14.4566 393.119H0.034668V408.203H14.4566V393.119Z" fill="black"/>
<path d="M28.8784 408.191H14.4565V423.275H28.8784V408.191Z" fill="black"/>
<path d="M129.837 272.407H115.416V287.491H129.837V272.407Z" fill="black"/>
<path d="M144.265 287.491H129.843V302.575H144.265V287.491Z" fill="black"/>
<path d="M159.812 257.034C153.795 257.963 148.165 249.649 143.088 246.457C126.976 235.344 103.105 242.717 94.2384 260.534C90.7483 267.551 89.5196 275.907 91.3598 283.618C93.1193 291.003 97.8785 299.299 105.147 301.79C108.441 302.919 112.012 302.569 115.416 302.569V287.479C108.585 287.479 102.257 283.25 102.257 274.863C102.257 263.387 109.104 254.862 119.056 250.572C125.817 247.598 133.939 247.411 140.648 250.886C145.482 253.324 150.068 257.849 155.624 259.086C160.648 260.208 164.71 257.227 166.677 252.509C168.425 248.461 168.828 243.839 168.148 239.525L168.004 239.549C168.673 245.456 166.169 255.737 159.812 257.034Z" fill="black"/>
<path d="M307.908 239.525C307.227 243.839 307.631 248.461 309.379 252.509C311.346 257.227 315.407 260.208 320.432 259.086C325.987 257.849 330.573 253.324 335.407 250.886C342.116 247.411 350.239 247.598 357 250.572C366.951 254.862 373.798 263.387 373.798 274.863C373.798 283.25 367.47 287.479 360.64 287.479V302.569C364.043 302.569 367.614 302.919 370.908 301.79C378.177 299.299 382.936 291.003 384.696 283.618C386.536 275.907 385.307 267.551 381.817 260.534C372.95 242.717 349.079 235.344 332.967 246.457C327.891 249.649 322.26 257.963 316.243 257.034C309.886 255.737 307.383 245.456 308.052 239.549L307.908 239.525Z" fill="black"/>
<path d="M288.496 287.491H274.074V302.575H288.496V287.491Z" fill="black"/>
<path d="M375.033 166.81H360.611V181.893H375.033V166.81Z" fill="black"/>
<path d="M360.611 151.696H346.189V166.779H360.611V151.696Z" fill="black"/>
<path d="M360.611 272.407H346.189V287.491H360.611V272.407Z" fill="black"/>
<path d="M418.177 227.15H403.755V242.234H418.177V227.15Z" fill="black"/>
<path d="M346.189 287.491H331.767V302.575H346.189V287.491Z" fill="black"/>
<path d="M238.117 102.535H237.817V102.692H238.117V102.535Z" fill="black"/>
<path d="M461.576 332.742H447.154V347.826H461.576V332.742Z" fill="black"/>
<path d="M447.148 347.832H432.726V362.916H447.148V347.832Z" fill="black"/>
<path d="M447.148 362.916H432.726V377.999H447.148V362.916Z" fill="black"/>
<path d="M389.46 317.665H375.039H375.033V332.742H360.617V332.748H360.611V347.832H375.033V347.826H375.039V332.748H389.455H389.46V317.665Z" fill="black"/>
<path d="M389.46 347.832H375.039V362.916H389.46V347.832Z" fill="black"/>
<path d="M461.576 377.999H447.154V393.083H461.576V377.999Z" fill="black"/>
<path d="M475.998 393.083H461.576V408.167H475.998V393.083Z" fill="black"/>
<path d="M461.576 408.173H447.154V423.256H461.576V408.173Z" fill="black"/>
<path d="M28.8438 121.565H14.4219V136.648H28.8438V121.565Z" fill="black"/>
<path d="M43.2657 106.481V91.3972H28.8438V76.3135H14.4219V91.3972H28.8438V106.481V121.565H43.2657V106.481Z" fill="black"/>
<path d="M14.4219 61.1936H0V76.2773H14.4219V61.1936Z" fill="black"/>
<path d="M28.8438 46.122H14.4219V61.2057H28.8438V46.122Z" fill="black"/>
<path d="M43.2656 136.648H28.8438V151.732H43.2656V136.648Z" fill="black"/>
<path d="M54.1572 77.0798C63.5891 90.5766 79.2455 100.478 81.4549 117.969C82.2279 124.805 79.2397 131.628 73.419 134.675C70.2001 136.431 66.5658 136.902 62.8968 137.137C56.4127 137.463 49.871 136.66 43.2715 136.654V151.738C45.4175 151.738 47.6788 151.732 49.969 151.696C57.3069 151.617 64.8524 151.117 71.9595 148.595C89.785 142.09 94.7115 122.56 84.6508 106.547C77.0649 93.9795 64.2179 87.2281 55.2475 76.1627C40.1333 57.9717 36.8047 29.7411 55.9801 13.2637C71.2788 0.346029 90.5753 7.86374 102.84 21.4089C104.628 23.3879 106.439 25.4996 108.159 27.7199C106.064 28.5706 103.988 29.723 101.922 31.2133C95.9864 35.485 91.556 41.8865 89.5081 49.1749C88.1525 54.1284 87.7486 59.6249 89.2254 64.6267C92.381 74.3587 102.707 78.7752 111.533 74.3104C120.186 70.0025 124.288 59.4258 123.469 49.8326C122.955 42.5562 119.385 34.9782 114.446 28.2026C125.338 25.8013 136.558 31.4908 147.576 35.7987C154.62 38.3147 163.619 41.6572 170.848 38.4052C176.097 35.841 179.195 28.8301 176.801 23.1164C176.801 23.1164 176.201 23.412 176.201 23.418C177.649 26.5675 177.176 30.3927 175.48 33.3431C167.652 46.8279 145.736 33.7111 135.249 29.7351C127.663 26.5373 120.238 24.8238 112.981 26.2658C107.484 19.261 100.636 13.2758 94.4404 9.64361C79.7935 1.08211 62.6891 2.16814 51.492 16.0512C40.0006 29.8437 39.8333 48.831 47.1423 64.8077C49.0287 69.1518 51.4343 73.2364 54.1572 77.0798ZM117.677 56.5358C116.367 64.331 109.733 71.7341 101.836 70.0809C97.7286 69.2604 94.5154 65.6644 93.477 61.4591C91.383 51.2143 95.848 40.1187 103.647 33.687C105.655 32.0097 107.68 30.7427 109.722 29.8075C115.375 37.6329 119.552 46.7253 117.677 56.5358Z" fill="black"/>
<path d="M461.547 121.571H447.125V136.654H461.547V121.571Z" fill="black"/>
<path d="M447.119 106.481H432.697V121.565H447.119V106.481Z" fill="black"/>
<path d="M447.119 136.648H432.697V151.732H447.119V136.648Z" fill="black"/>
<path d="M447.119 91.3972H432.697V106.481H447.119V91.3972Z" fill="black"/>
<path d="M461.541 76.3135H447.119V91.3972H461.541V76.3135Z" fill="black"/>
<path d="M475.969 61.2238H461.547V76.3074H475.969V61.2238Z" fill="black"/>
<path d="M461.541 46.1401H447.119V61.2238H461.541V46.1401Z" fill="black"/>
<path d="M132.514 114.373C126.567 112.074 121.438 113.516 117.302 108.755C115.156 106.282 114.677 102.819 115.479 99.4579C116.915 93.2796 121.957 88.8148 126.336 84.6336C129.491 81.5566 132.826 78.6303 135.45 75.0163C139.587 69.5077 139.477 62.0926 139.137 55.498C139.137 55.498 138.56 55.5282 138.566 55.5282C139.333 65.2843 138.156 72.9046 130.576 79.4207C127.242 82.2866 123.382 84.2415 119.788 86.7936C115.929 89.4483 112.225 92.6823 109.999 97.1591C107.155 102.613 107.247 109.238 110.137 114.656C113.212 120.418 118.456 123.188 124.126 125.462C125.355 125.951 126.601 126.458 127.628 127.314C130.189 129.456 129.757 133.571 129.757 136.63H144.179C144.179 127.308 141.721 117.926 132.514 114.373Z" fill="black"/>
<path d="M403.277 199.571C409.692 192.621 412.651 182.418 411.278 172.843C409.726 160.945 403.213 151.702 389.374 151.702V151.726H375.033V166.81H389.374V166.816C399.129 166.52 402.706 171.799 403.352 180.168C404.932 200.295 381.436 213.738 364.776 205.701C361.09 204.006 358.015 201.243 354.606 199.01C352.264 197.478 349.737 195.969 346.887 195.782C339.128 195.396 335.857 204.917 335.863 211.681C335.823 212.923 336.048 214.685 336.174 215.94C336.273 217.322 336.267 218.722 336.123 220.103C335.551 225.165 333.365 231.778 328.058 232.93C322.722 233.842 318.332 229.099 314.288 226.052C303.148 216.604 286.044 213.973 274.72 224.58C267.659 231.138 265.403 241.733 266.667 251.248C268.172 263.122 274.443 272.401 288.438 272.426V287.491H302.86V272.407H288.484C288.49 272.009 288.49 257.288 288.49 257.288C279.548 257.288 275.77 253.456 274.604 245.691C274.016 242.119 274.022 238.288 275.106 234.837C279.335 221.376 295.003 218.348 306.373 223.518C312.719 225.998 317.414 231.826 324.002 233.884C332.119 236.128 336.203 227.265 336.832 220.188C337.057 218.13 336.896 215.838 336.648 213.774C336.457 211.699 336.59 209.593 336.976 207.554C337.876 202.498 341.159 196.307 346.812 196.899C350.781 197.369 353.954 200.217 357.098 202.685C361.384 206.371 366.339 209.358 371.877 210.383C383.132 212.628 395.408 208.32 403.277 199.571Z" fill="black"/>
<path d="M447.067 317.659C447.067 305.199 440.416 297.29 430.822 293.531C420.364 289.718 409.207 293.307 402.348 301.736C399.267 297.018 396.862 291.95 396.441 286.122C395.76 278.169 400.063 271.008 406.721 267.4C413.557 263.713 420.964 262.7 428.625 261.27C443.819 258.44 460.895 250.313 456.522 230.595C453.944 218.981 443.641 212.067 432.645 212.067H418.304V227.15H432.726C440.67 227.168 445.377 229.558 446.6 236.641C448.192 244.69 441.085 250.041 434.48 252.413C424.667 256.141 413.666 257.71 404.667 263.894C394.52 270.996 391.578 283.014 397.156 294.321C398.529 297.115 400.185 299.715 401.967 302.231C400.859 303.655 399.867 305.205 399.025 306.883C396.343 312.059 395.31 317.809 394.814 323.427C393.608 336.694 396.141 350.203 401.275 362.282C403.213 366.868 405.48 371.236 408.013 375.435C406.323 376.002 404.586 376.298 402.838 376.256C399.146 376.262 395.114 374.723 392.57 372.032C390.17 369.534 389.38 366.596 389.38 362.916C389.374 362.916 374.952 362.916 374.952 362.916C375.217 378.778 389.57 389.493 404.061 386.319C407.234 385.583 410.055 384.22 412.541 382.398C416.845 388.473 421.592 394.187 425.492 400.51C428.094 404.703 430.349 409.162 431.786 413.935C437.676 432.645 427.852 456.851 409.178 462.462C399.948 465.243 390.314 461.678 382.515 456.422C377.473 452.989 372.154 448.138 367.701 442.564C379.359 437.767 387.701 425.501 387.753 412.155C388.007 403.231 383.305 393.433 373.712 393.131C365.249 392.818 357.663 399.165 354.508 406.984C352.385 412.263 352.24 418.013 353.267 423.323C354.519 429.634 357.455 435.281 361.165 440.349C360.247 440.548 359.324 440.699 358.384 440.784C344.891 441.749 332.857 433.013 319.803 430.05C318.805 426.478 317.426 423.021 315.609 419.679C313.094 415.244 309.8 411.515 306.021 408.384C313.342 399.575 323.673 385.873 315.303 380.823C321.499 385.089 315.747 393.789 312.632 398.326C310.244 401.602 307.417 404.438 304.469 407.159C300.552 404.179 296.191 401.777 291.674 399.853C292.245 397.071 292.488 394.103 292.413 391.062C292.493 388.66 292.372 386.247 292.049 383.852C291.928 382.947 291.772 382.03 291.588 381.119C301.037 377.269 309.777 371.435 315.574 362.415C321.977 351.917 325.445 338.703 321.856 326.305C317.512 311.529 305.138 302.545 288.501 302.545V317.665C297.356 317.665 302.854 320.911 307.163 326.395C313.509 334.673 310.971 347.56 306.338 356.43C302.346 363.622 295.678 368.659 288.403 372.286C286.782 369.402 284.602 366.916 281.712 365.239C268.103 357.938 253.993 368.738 241.803 374.186C240.557 374.753 239.294 375.272 238.013 375.743C236.733 375.266 235.469 374.753 234.223 374.186C222.034 368.738 207.923 357.938 194.315 365.239C191.425 366.916 189.244 369.402 187.623 372.286C180.349 368.659 173.68 363.622 169.688 356.43C165.056 347.56 162.517 334.673 168.863 326.395C173.172 320.911 178.67 317.665 187.525 317.665V302.575H201.947V287.491H187.583V272.426C201.52 272.365 207.768 263.098 209.267 251.248C210.531 241.733 208.275 231.138 201.214 224.58C189.89 213.973 172.786 216.604 161.646 226.052C157.602 229.099 153.212 233.842 147.876 232.93C142.569 231.778 140.383 225.165 139.812 220.103C139.667 218.722 139.662 217.322 139.76 215.94C139.887 214.685 140.112 212.923 140.071 211.681C140.077 204.917 136.806 195.396 129.047 195.782C126.197 195.969 123.671 197.478 121.328 199.01C117.919 201.243 114.844 204.006 111.158 205.701C94.498 213.738 71.0018 200.295 72.5825 180.168C73.2286 171.799 76.8052 166.52 86.5602 166.816V151.702C72.7209 151.702 66.208 160.945 64.6562 172.843C63.2832 182.418 66.2426 192.621 72.6575 199.571C80.5261 208.32 92.802 212.628 104.057 210.383C109.595 209.358 114.55 206.371 118.836 202.685C121.98 200.217 125.153 197.369 129.122 196.899C134.775 196.307 138.058 202.498 138.958 207.554C139.344 209.593 139.477 211.699 139.287 213.774C139.039 215.838 138.877 218.13 139.102 220.188C139.731 227.265 143.815 236.128 151.932 233.884C158.52 231.826 163.215 225.998 169.561 223.518C180.931 218.348 196.599 221.376 200.828 234.837C201.912 238.288 201.918 242.119 201.33 245.691C200.164 253.456 196.386 257.288 187.444 257.288C187.444 257.288 187.444 272.027 187.45 272.407H173.161V287.491H187.525V302.545C170.888 302.545 158.514 311.529 154.17 326.305C150.582 338.703 154.049 351.917 160.452 362.415C166.25 371.435 174.99 377.275 184.439 381.119C184.248 382.03 184.098 382.947 183.977 383.852C183.66 386.211 183.539 388.582 183.614 390.947C183.527 394.03 183.77 397.035 184.346 399.853C179.829 401.777 175.468 404.179 171.551 407.159C168.603 404.438 165.783 401.602 163.389 398.326C160.273 393.789 154.522 385.089 160.718 380.823C152.347 385.879 162.679 399.575 170 408.384C166.221 411.515 162.927 415.244 160.412 419.679C158.595 423.015 157.222 426.466 156.224 430.026C143.14 432.964 131.078 441.749 117.55 440.784C116.61 440.705 115.687 440.548 114.769 440.349C118.473 435.275 121.415 429.634 122.667 423.323C123.694 418.013 123.549 412.263 121.427 406.984C118.271 399.165 110.685 392.818 102.222 393.131C92.6289 393.433 87.9274 403.231 88.1812 412.155C88.2331 425.501 96.569 437.767 108.233 442.564C103.786 448.132 98.4611 452.983 93.4192 456.422C85.6199 461.678 75.986 465.243 66.756 462.462C48.0826 456.851 38.2584 432.645 44.1483 413.935C45.5847 409.162 47.8403 404.703 50.442 400.51C54.3474 394.187 59.0893 388.473 63.3928 382.398C65.8734 384.22 68.7001 385.583 71.8729 386.319C86.364 389.493 100.717 378.778 100.982 362.916H100.976V347.832H86.5544V362.916H88.3254C87.2467 362.916 86.5544 362.916 86.5544 362.916C86.5544 366.596 85.7641 369.534 83.3643 372.032C80.8203 374.723 76.7879 376.262 73.0959 376.256C71.348 376.298 69.6116 376.002 67.9213 375.435C70.448 371.236 72.7152 366.868 74.6592 362.282C79.7934 350.203 82.3259 336.694 81.1202 323.427C80.6241 317.809 79.5915 312.059 76.909 306.883C76.0668 305.205 75.0746 303.655 73.967 302.231C75.7438 299.715 77.4052 297.115 78.7781 294.321C84.3565 283.014 81.4144 270.996 71.2672 263.894C62.2679 257.71 51.2669 256.141 41.4543 252.413C34.849 250.041 27.7419 244.69 29.3341 236.641C30.5628 229.534 35.2932 227.15 43.2887 227.15V227.156H57.7106V212.073H43.2887V212.067C32.2935 212.067 21.9905 218.981 19.4118 230.595C15.0391 250.313 32.1146 258.44 47.3095 261.27C54.9705 262.7 62.3775 263.713 69.2135 267.4C75.8649 271.008 80.1742 278.169 79.4935 286.122C79.0723 291.95 76.6668 297.018 73.5862 301.736C66.7329 293.307 55.5762 289.718 45.1116 293.531C35.5182 297.29 28.8668 305.199 28.8668 317.659V332.742H43.2887V317.779C43.2945 317.779 43.306 317.779 43.306 317.779C43.306 312.216 45.9712 308.071 49.7728 306.165C54.4513 304.029 59.9027 304.747 64.0159 308.24C65.0369 309.091 65.9253 310.062 66.7099 311.106C65.9888 312.053 65.2735 313.001 64.5812 313.948C56.6607 324.718 50.0959 337.466 49.7959 351.343C49.8016 361.757 53.5167 373.402 61.0565 380.455C54.1571 392.413 45.0309 403.358 42.308 417.344C38.8122 435.939 48.4979 457.949 66.3291 464.031C81.0568 468.731 96.119 459.813 106.734 449.629C108.556 447.795 110.351 445.864 112.041 443.843C118.698 445.508 125.915 444.211 132.128 441.87C137.833 440.035 146.999 434.907 155.647 432.295C154.978 435.167 154.539 438.105 154.308 441.116C153.218 453.611 158.162 468.459 171.511 470.734C177.822 471.784 184.243 469.684 188.858 465.213C193.132 461.116 195.272 454.709 195.659 448.953C196.64 437.821 191.402 427.365 184.387 419.425C182.449 417.181 180.337 415.129 178.174 413.144C178.837 412.644 179.53 412.155 180.245 411.678C182.46 410.206 184.768 408.879 187.144 407.69C190.779 414.333 197.222 418.49 206.666 417.482C213.386 416.71 219.519 413.609 225.432 410.562C229.608 408.372 233.698 406.206 238.002 404.553C242.305 406.206 246.401 408.372 250.578 410.562C256.491 413.609 262.623 416.71 269.343 417.482C278.787 418.49 285.23 414.333 288.865 407.69C291.242 408.879 293.549 410.206 295.764 411.678C296.48 412.155 297.172 412.644 297.835 413.144C295.672 415.135 293.555 417.187 291.622 419.425C284.607 427.365 279.369 437.821 280.35 448.953C280.737 454.709 282.877 461.116 287.151 465.213C291.766 469.684 298.187 471.784 304.498 470.734C317.847 468.459 322.791 453.611 321.701 441.116C321.47 438.117 321.031 435.185 320.368 432.319C328.987 434.943 338.107 440.042 343.795 441.87C350.008 444.205 357.219 445.508 363.882 443.843C365.578 445.87 367.366 447.795 369.189 449.629C379.804 459.813 394.866 468.731 409.593 464.031C427.425 457.949 437.11 435.939 433.615 417.344C430.897 403.358 421.771 392.413 414.866 380.455C422.4 373.408 426.115 361.757 426.127 351.343C425.827 337.466 419.262 324.718 411.341 313.948C410.649 313.001 409.94 312.053 409.213 311.106C409.997 310.062 410.886 309.091 411.907 308.24C416.02 304.747 421.471 304.029 426.15 306.165C429.951 308.071 432.617 312.216 432.617 317.779C432.617 317.779 432.657 317.779 432.715 317.779V332.748H447.136V317.665H446.456C446.848 317.659 447.067 317.659 447.067 317.659ZM52.5072 359.109C50.6439 354.089 50.3612 348.538 51.2381 343.24C53.0956 332.471 58.9913 323.04 65.0312 314.304C65.6773 313.369 66.3522 312.44 67.0272 311.523C69.6923 315.287 71.0422 320.06 71.8729 324.766C74.9707 341.449 71.8498 358.638 64.5177 373.891C59.0663 370.771 54.5147 364.997 52.5072 359.109ZM96.3209 425.501C92.6462 418.291 91.1463 406.453 97.3305 400.456C98.738 399.201 100.48 398.543 102.419 398.477C108.724 398.26 114.394 403.111 116.933 409.036C118.709 413.217 118.969 417.923 118.225 422.43C117.221 428.131 114.464 433.869 110.806 439.13C104.634 436.627 99.3726 431.613 96.3209 425.501ZM186.314 430.304C189.106 435.691 190.19 442.093 189.083 448.084C188.263 452.241 186.746 456.109 183.539 458.57C179.345 461.539 173.305 461.026 169.44 457.852C165.096 454.16 164.075 447.529 164.242 441.677C164.398 437.791 164.958 434.147 165.956 430.756C170.634 431.076 174.459 433.308 176.466 438.877C177.182 441.176 177.216 443.746 176.282 446.003L176.807 446.256C179.114 441.423 177.187 435.366 173.305 432.041C171.384 430.364 168.915 429.495 166.458 429.181C168.298 423.824 171.315 419.142 175.682 415.202C179.714 420.047 183.596 424.885 186.314 430.304ZM268.138 366.421C276.935 364.195 283.079 367.302 286.95 372.992C284.29 374.234 281.573 375.308 278.891 376.232C268.236 379.767 256.623 380.437 245.645 377.993C253.081 373.782 260.004 368.587 268.138 366.421ZM207.9 366.421C216.034 368.587 222.957 373.782 230.393 377.993C219.415 380.437 207.796 379.767 197.147 376.232C194.465 375.308 191.742 374.24 189.088 372.992C192.959 367.302 199.103 364.195 207.9 366.421ZM183.937 390.845C184.081 387.611 184.543 384.431 185.339 381.481C188.488 382.717 191.707 383.737 194.921 384.588C209.141 388.208 224.445 387.369 238.019 381.752C251.593 387.369 266.897 388.202 281.117 384.588C284.325 383.743 287.55 382.717 290.699 381.481C291.49 384.419 291.951 387.58 292.101 390.796C291.934 393.741 291.49 396.661 290.705 399.448C287.584 398.169 284.406 397.113 281.262 396.239C267.059 392.413 251.679 393.107 238.025 398.67C224.37 393.107 208.985 392.413 194.782 396.239C191.638 397.113 188.46 398.175 185.339 399.448C184.548 396.673 184.104 393.771 183.937 390.845ZM206.256 414.2C198.63 415.6 192.492 412.752 188.633 406.972C201.618 400.872 216.565 399.008 230.543 402.284C222.599 406.695 215.146 412.426 206.256 414.2ZM269.776 414.2C260.886 412.426 253.433 406.695 245.484 402.284C259.461 399.008 274.408 400.872 287.394 406.972C283.54 412.752 277.402 415.6 269.776 414.2ZM306.592 457.852C302.727 461.026 296.687 461.539 292.493 458.57C289.286 456.109 287.769 452.241 286.95 448.084C285.842 442.093 286.927 435.691 289.719 430.304C292.436 424.885 296.318 420.047 300.345 415.202C304.712 419.136 307.723 423.818 309.569 429.169C307.088 429.471 304.579 430.346 302.641 432.041C298.758 435.366 296.831 441.423 299.139 446.256L299.664 446.003C298.729 443.746 298.764 441.176 299.479 438.877C301.498 433.278 305.358 431.046 310.077 430.75C311.075 434.141 311.634 437.785 311.79 441.677C311.957 447.529 310.936 454.16 306.592 457.852ZM357.721 422.43C356.977 417.923 357.236 413.217 359.013 409.036C361.551 403.111 367.222 398.26 373.527 398.477C375.465 398.543 377.208 399.201 378.615 400.456C384.799 406.453 383.299 418.291 379.625 425.501C376.573 431.613 371.312 436.627 365.139 439.13C361.482 433.869 358.724 428.131 357.721 422.43ZM410.914 314.304C416.954 323.04 422.85 332.471 424.708 343.24C425.584 348.538 425.302 354.089 423.438 359.109C421.431 364.997 416.879 370.771 411.428 373.891C404.102 358.638 400.975 341.449 404.073 324.766C404.903 320.06 406.248 315.287 408.918 311.523C409.593 312.44 410.268 313.369 410.914 314.304Z" fill="black"/>
<path d="M305.092 38.4052C312.321 41.6572 321.32 38.3147 328.364 35.7987C339.382 31.4908 350.602 25.8073 361.494 28.2026C356.561 34.9782 352.99 42.5502 352.471 49.8326C351.652 59.4258 355.754 70.0025 364.407 74.3104C373.233 78.7752 383.559 74.3587 386.715 64.6267C388.191 59.6249 387.788 54.1284 386.432 49.1749C384.384 41.8865 379.954 35.485 374.018 31.2133C371.952 29.717 369.876 28.5706 367.781 27.7199C369.501 25.4996 371.312 23.3939 373.1 21.4089C385.365 7.86374 404.661 0.346029 419.96 13.2637C439.135 29.7411 435.807 57.9717 420.693 76.1627C411.722 87.2281 398.875 93.9795 391.289 106.547C381.228 122.56 386.155 142.09 403.98 148.595C411.088 151.117 418.633 151.617 425.971 151.696C428.261 151.732 430.523 151.738 432.668 151.738V136.654C426.069 136.66 419.527 137.463 413.043 137.137C409.374 136.902 405.74 136.431 402.521 134.675C396.7 131.628 393.712 124.805 394.485 117.969C396.694 100.478 412.351 90.5766 421.783 77.0798C424.506 73.2364 426.911 69.1518 428.798 64.8077C436.107 48.831 435.939 29.8437 424.448 16.0512C413.251 2.16814 396.146 1.08211 381.5 9.64361C375.304 13.2758 368.456 19.261 362.959 26.2658C355.702 24.8238 348.277 26.5373 340.691 29.7351C330.204 33.7111 308.288 46.8279 300.46 33.3431C298.764 30.3927 298.291 26.5675 299.739 23.418C299.745 23.412 299.139 23.1164 299.139 23.1164C296.745 28.8301 299.843 35.841 305.092 38.4052ZM372.293 33.687C380.092 40.1187 384.557 51.2143 382.463 61.4591C381.425 65.6644 378.211 69.2604 374.104 70.0809C366.207 71.7341 359.573 64.331 358.263 56.5358C356.388 46.7253 360.565 37.6329 366.218 29.8075C368.26 30.7427 370.285 32.0097 372.293 33.687Z" fill="black"/>
<path d="M343.426 114.373C334.225 117.926 331.767 127.296 331.761 136.612V151.696H346.183V136.63V136.624V136.612C346.183 133.553 345.756 129.45 348.312 127.314C349.339 126.458 350.585 125.951 351.814 125.462C357.484 123.188 362.728 120.418 365.803 114.656C368.693 109.238 368.785 102.613 365.941 97.1591C363.715 92.6823 360.011 89.4483 356.152 86.7936C352.558 84.2415 348.698 82.2866 345.364 79.4207C337.784 72.9046 336.607 65.2843 337.374 55.5282C337.38 55.5282 336.803 55.498 336.803 55.498C336.463 62.0926 336.353 69.5077 340.489 75.0163C343.114 78.6303 346.449 81.5566 349.604 84.6336C353.983 88.8148 359.025 93.2796 360.461 99.4579C361.263 102.819 360.784 106.282 358.638 108.755C354.502 113.516 349.373 112.074 343.426 114.373Z" fill="black"/>
</svg>
