<svg xmlns="http://www.w3.org/2000/svg" viewBox="0 0 1999 1091" font-family="ui-monospace, SFMono-Regular, Menlo, Consolas, monospace">
  <rect width="1999" height="1091" fill="#f4f4f5"/>

  <text x="52" y="95" font-size="42" fill="#111111">Transparent and Confidential Modes</text>

  <g fill="#e6e6e6">
    <rect x="672" y="209" width="655" height="90" rx="14"/>
    <rect x="672" y="354" width="655" height="90" rx="14"/>
    <rect x="672" y="499" width="655" height="90" rx="14"/>
    <rect x="672" y="644" width="655" height="90" rx="14"/>
    <rect x="672" y="789" width="655" height="90" rx="14"/>
  </g>

  <g font-size="28" fill="#111111" text-anchor="middle">
    <text x="999" y="262">USDC or supported asset</text>
    <text x="999" y="407">Transparent CUSD</text>
    <text x="999" y="552">Confidential balance</text>
    <text x="999" y="697">Confidential transfer</text>
    <text x="999" y="842">Transparent withdrawal</text>
  </g>

  <g stroke="#111111" stroke-width="2" fill="none" marker-end="url(#arrow)">
    <line x1="999" y1="299" x2="999" y2="350"/>
    <line x1="999" y1="444" x2="999" y2="495"/>
    <line x1="999" y1="589" x2="999" y2="640"/>
    <line x1="999" y1="734" x2="999" y2="785"/>
  </g>

  <defs>
    <marker id="arrow" viewBox="0 0 10 10" refX="9" refY="5" markerWidth="7" markerHeight="7" orient="auto-start-reverse">
      <path d="M 0 0 L 10 5 L 0 10 z" fill="#111111"/>
    </marker>
  </defs>
</svg>
