<svg width="266" height="80" viewBox="0 0 266 80" fill="none" xmlns="http://www.w3.org/2000/svg">
<path d="M20.1688 0H0V19.9995V39.9991V59.9986H20.1688V39.9991V19.9995H40.3377V0H20.1688Z" fill="black"/>
<path d="M60.5066 19.9995V39.9991V59.9986H40.3377V80H60.5066H80.6773V59.9986V39.9991V19.9995H60.5066Z" fill="black"/>
<path d="M60.5065 39.9991C60.5065 39.9991 40.3377 39.7084 40.3377 19.9995C40.3377 39.7103 20.1688 39.9991 20.1688 39.9991C20.1688 39.9991 40.3377 40.2897 40.3377 59.9986C40.3377 40.2897 60.5065 39.9991 60.5065 39.9991Z" fill="black"/>
<path d="M108.484 59.8204L108.301 60.0624H98.8926L98.7092 59.8204C99.564 59.5785 100.226 59.2054 100.695 58.699C101.162 58.1946 101.489 57.3864 101.673 56.2762C101.856 55.1661 101.947 53.6003 101.947 51.5806V28.5619C101.947 26.5423 101.854 24.9783 101.673 23.8682C101.489 22.758 101.162 21.9404 100.695 21.4154C100.226 20.8903 99.564 20.5284 98.7092 20.3258L98.8926 20.0839H119.298L121.191 28.8676L120.885 29.0495C120.111 27.1517 119.245 25.6065 118.288 24.4157C117.331 23.225 116.17 22.3361 114.806 21.751C113.441 21.1659 111.741 20.8734 109.706 20.8734H105.247V39.834H109.585C111.418 39.834 112.853 39.4402 113.891 38.6526C114.929 37.865 115.714 36.5824 116.244 34.8065L116.488 34.9884V45.4073L116.244 45.6492C115.714 43.8733 114.962 42.5907 113.984 41.8031C113.006 41.0155 111.54 40.6217 109.585 40.6217H105.247V51.5862C105.247 53.6059 105.338 55.1717 105.521 56.2819C105.704 57.392 106.03 58.2002 106.499 58.7047C106.966 59.2054 107.63 59.5785 108.484 59.8204Z" fill="black"/>
<path d="M133.311 38.8608C133.311 36.8824 132.833 35.2866 131.876 34.0751C130.919 32.8637 129.604 32.258 127.935 32.258C126.876 32.258 125.756 32.5618 124.574 33.1675C123.392 33.7732 122.414 34.8234 121.641 36.3179L121.397 36.196C121.722 34.9846 122.261 33.9458 123.016 33.0756C123.768 32.2074 124.674 31.5417 125.735 31.0766C126.794 30.6134 127.935 30.379 129.156 30.379C130.501 30.379 131.702 30.6734 132.761 31.2566C133.82 31.8436 134.663 32.7325 135.297 33.9214C135.928 35.1122 136.244 36.5974 136.244 38.3732V55.9406C136.244 57.0301 136.488 57.8383 136.978 58.3634C137.466 58.8884 138.077 59.151 138.81 59.151C139.217 59.151 139.635 59.0816 140.062 58.9391C140.49 58.7984 140.927 58.5865 141.377 58.3034L141.56 58.4853C140.989 59.2522 140.327 59.858 139.575 60.3024C138.82 60.7468 138.037 60.9681 137.222 60.9681C136.244 60.9681 135.359 60.6043 134.565 59.8767C133.771 59.1491 133.374 57.979 133.374 56.3644H133.251C132.313 57.9808 131.274 59.151 130.136 59.8767C128.996 60.6043 127.753 60.9681 126.409 60.9681C124.739 60.9681 123.222 60.3511 121.857 59.121C120.491 57.8889 119.81 56.1225 119.81 53.8196C119.81 52.2051 120.147 50.8511 120.818 49.7616C121.49 48.6721 122.316 47.7832 123.292 47.0969C124.27 46.4105 125.217 45.8967 126.132 45.5517C127.05 45.2085 127.751 44.9572 128.239 44.7941C129.705 44.3103 130.917 43.7852 131.874 43.2189C132.831 42.6544 133.309 42.0487 133.309 41.4017V38.8608H133.311ZM133.311 43.5264C132.74 43.8096 132.129 44.0815 131.479 44.344C130.826 44.6065 130.276 44.8184 129.83 44.9797C127.224 45.9886 125.44 47.2506 124.483 48.7658C123.526 50.281 123.048 51.8056 123.048 53.3396C123.048 54.956 123.466 56.2575 124.3 57.2457C125.134 58.2358 126.244 58.7309 127.63 58.7309C128.445 58.7309 129.381 58.4796 130.44 57.9733C131.499 57.4689 132.456 56.55 133.311 55.2167V43.5264Z" fill="black"/>
<path d="M148.31 30.6228V52.7939C148.31 55.1361 148.523 56.8219 148.951 57.8515C149.378 58.881 150.121 59.5373 151.18 59.8205L150.997 60.0624H142.689L142.506 59.8205C143.565 59.5392 144.308 58.881 144.735 57.8515C145.163 56.8219 145.376 55.1361 145.376 52.7939V39.2846C145.376 37.0231 145.142 35.3672 144.675 34.3171C144.206 33.2669 143.402 32.5806 142.262 32.2581L142.445 32.0161L148.126 30.4409L148.31 30.6228ZM146.598 26.1391C146.11 26.1391 145.66 26.0172 145.254 25.7753C144.845 25.5334 144.52 25.2109 144.276 24.8058C144.032 24.4026 143.909 23.9582 143.909 23.4725C143.909 22.9887 144.032 22.5443 144.276 22.1392C144.52 21.736 144.845 21.4116 145.254 21.1697C145.66 20.9278 146.108 20.8059 146.598 20.8059C147.086 20.8059 147.534 20.9259 147.943 21.1697C148.349 21.4116 148.676 21.736 148.92 22.1392C149.164 22.5443 149.287 22.9868 149.287 23.4725C149.287 23.9563 149.164 24.4026 148.92 24.8058C148.676 25.2109 148.349 25.5334 147.943 25.7753C147.534 26.0191 147.086 26.1391 146.598 26.1391Z" fill="black"/>
<path d="M158.724 52.7939C158.724 55.1361 158.938 56.8219 159.365 57.8514C159.793 58.8809 160.536 59.5373 161.595 59.8204L161.411 60.0623H153.104L152.92 59.8204C153.979 59.5392 154.722 58.8809 155.15 57.8514C155.577 56.8219 155.791 55.1361 155.791 52.7939V39.2846C155.791 37.023 155.556 35.3672 155.089 34.317C154.62 33.2669 153.817 32.5806 152.676 32.258L152.86 32.0161L158.541 30.4409L158.724 30.6228V35.8923V36.3161V52.7939ZM168.072 30.6228L167.278 34.0151L167.155 34.1351C166.625 33.8126 166.086 33.5707 165.536 33.4076C164.986 33.2463 164.426 33.1656 163.857 33.1656C162.758 33.1656 161.738 33.4901 160.802 34.1351C159.864 34.7821 159.133 35.7516 158.603 37.0437L157.198 35.8923H158.786C159.193 34.3977 159.864 33.1769 160.802 32.228C161.738 31.2791 162.839 30.6528 164.1 30.349C165.362 30.0471 166.688 30.1371 168.072 30.6228Z" fill="black"/>
<path d="M173.569 19.4145V34.2571C174.384 33.0063 175.351 32.0461 176.47 31.3804C177.59 30.7147 178.781 30.3809 180.045 30.3809C181.917 30.3809 183.577 31.0373 185.024 32.3499C186.469 33.6626 187.609 35.4497 188.445 37.7113C189.279 39.9728 189.697 42.5569 189.697 45.4654C189.697 48.4546 189.258 51.1193 188.383 53.4615C187.507 55.8037 186.295 57.6414 184.748 58.9747C183.199 60.308 181.429 60.9737 179.434 60.9737C178.496 60.9737 177.55 60.7918 176.593 60.428C175.636 60.0642 174.566 59.4998 173.386 58.7328L170.882 60.9737H170.638V28.0781C170.638 25.8166 170.404 24.1607 169.935 23.1106C169.466 22.0604 168.662 21.3741 167.522 21.0516L167.705 20.8096L173.386 19.2344L173.569 19.4145ZM179.129 60.0624C180.799 60.0624 182.163 59.4267 183.222 58.1534C184.281 56.8819 185.064 55.2448 185.574 53.2458C186.083 51.2468 186.338 49.1372 186.338 46.915C186.338 44.5315 186.041 42.24 185.453 40.0385C184.863 37.8369 183.988 36.031 182.826 34.6171C181.665 33.2032 180.23 32.4962 178.52 32.4962C177.705 32.4962 176.881 32.7175 176.047 33.1619C175.211 33.6063 174.386 34.2721 173.573 35.1609V52.7883C173.573 54.8473 174.103 56.5744 175.162 57.9677C176.217 59.3666 177.541 60.0624 179.129 60.0624Z" fill="black"/>
<path d="M196.575 19.4145V52.7939C196.575 55.1361 196.789 56.8219 197.216 57.8514C197.643 58.881 198.387 59.5373 199.446 59.8204L199.262 60.0624H190.954L190.771 59.8204C191.83 59.5392 192.573 58.881 193.001 57.8514C193.428 56.8219 193.642 55.1361 193.642 52.7939V28.0781C193.642 25.8166 193.407 24.1607 192.94 23.1106C192.471 22.0604 191.667 21.3741 190.527 21.0516L190.71 20.8096L196.391 19.2344L196.575 19.4145Z" fill="black"/>
<path d="M210.84 60.9719C208.722 60.9719 206.878 60.3455 205.31 59.0947C203.742 57.8439 202.53 56.0662 201.675 53.7634C200.82 51.4606 200.393 48.7752 200.393 45.7073C200.393 42.5982 200.82 39.8922 201.675 37.5894C202.53 35.2866 203.742 33.5107 205.31 32.258C206.878 31.0073 208.722 30.3809 210.84 30.3809C212.958 30.3809 214.8 31.0073 216.369 32.258C217.937 33.5107 219.149 35.2866 220.004 37.5894C220.859 39.8922 221.286 42.5982 221.286 45.7073C221.286 48.8184 220.859 51.5131 220.004 53.7953C219.149 56.0775 217.937 57.8439 216.369 59.0966C214.802 60.3455 212.958 60.9719 210.84 60.9719ZM217.744 46.0092C217.744 42.9807 217.449 40.3666 216.859 38.1651C216.269 35.9635 215.443 34.2683 214.385 33.0757C213.326 31.8849 212.065 31.2885 210.598 31.2885C209.213 31.2885 208.022 31.8549 207.023 32.9856C206.025 34.1164 205.261 35.7329 204.733 37.8313C204.204 39.9316 203.939 42.435 203.939 45.3435C203.939 48.3327 204.234 50.9374 204.824 53.1577C205.414 55.3799 206.25 57.0863 207.328 58.2771C208.406 59.4679 209.699 60.0642 211.207 60.0642C212.551 60.0642 213.71 59.4998 214.688 58.3671C215.666 57.2364 216.418 55.6218 216.948 53.5215C217.477 51.4212 217.744 48.9159 217.744 46.0092Z" fill="black"/>
<path d="M242.418 54.4291C242.051 55.7624 241.5 56.9119 240.769 57.8814C240.035 58.8509 239.15 59.6085 238.112 60.1524C237.073 60.6981 235.901 60.97 234.598 60.97C232.438 60.97 230.536 60.2724 228.887 58.8791C227.238 57.4858 225.944 55.588 225.008 53.1839C224.07 50.7817 223.603 48.0851 223.603 45.0979C223.603 42.1087 224.04 39.5153 224.917 37.3137C225.793 35.1122 227.024 33.4057 228.612 32.1943C230.201 30.9829 232.054 30.3772 234.172 30.3772C234.742 30.3772 235.415 30.4184 236.188 30.4991C236.962 30.5797 237.796 30.7222 238.692 30.9229L240.464 31.2867L241.442 37.9494L241.137 38.0713C240.16 35.8098 239.101 34.1145 237.96 32.9838C236.82 31.853 235.538 31.2867 234.112 31.2867C232.686 31.2867 231.434 31.8324 230.354 32.9219C229.274 34.0114 228.44 35.5172 227.85 37.4356C227.26 39.354 226.965 41.5649 226.965 44.0684C226.965 46.1686 227.179 48.1283 227.606 49.9454C228.034 51.7625 228.645 53.3283 229.439 54.6391C230.233 55.9518 231.16 56.9813 232.219 57.7295C233.278 58.4778 234.439 58.8509 235.7 58.8509C237.045 58.8509 238.276 58.4365 239.396 57.6095C240.515 56.7825 241.4 55.6818 242.053 54.3072L242.418 54.4291Z" fill="black"/>
<path d="M242.845 59.8204C243.904 59.5392 244.647 58.881 245.075 57.8514C245.502 56.8219 245.716 55.1361 245.716 52.7939V28.0781C245.716 25.8166 245.481 24.1607 245.014 23.1106C244.545 22.0604 243.741 21.3741 242.601 21.0516L242.785 20.8096L248.465 19.2344L248.649 19.4163V52.7958C248.649 55.138 248.863 56.8238 249.29 57.8533C249.717 58.8828 250.461 59.5392 251.52 59.8223L251.336 60.0642H243.028L242.845 59.8204ZM257.445 59.8204C258.137 59.4979 258.513 59.0235 258.575 58.3971C258.636 57.7708 258.381 57.0751 257.811 56.3081L248.709 43.8902L256.162 36.1961C256.611 35.7516 256.936 35.3185 257.14 34.8928C257.344 34.469 257.446 34.0545 257.446 33.6514C257.446 33.0869 257.252 32.6125 256.866 32.228C256.478 31.8455 255.939 31.613 255.247 31.5304L255.43 31.2885H264.899L265.083 31.5304C263.738 31.6917 262.619 31.9843 261.722 32.4081C260.826 32.8319 259.929 33.5088 259.035 34.4371L251.338 42.3731L260.686 55.1548C261.42 56.1243 262.049 56.9326 262.579 57.5776C263.108 58.2246 263.647 58.7197 264.198 59.061C264.748 59.4041 265.348 59.6573 266 59.8186L265.817 60.0605H257.63L257.445 59.8204Z" fill="black"/>
</svg>
