<svg width="476" height="471" viewBox="0 0 476 471" fill="none" xmlns="http://www.w3.org/2000/svg">
<path d="M201.931 147.186H187.504V161.904H201.931V147.186Z" fill="black"/>
<path d="M187.504 161.904H173.078V176.621H187.504V161.904Z" fill="black"/>
<path d="M173.101 323.814H158.674V338.531H173.101V323.814Z" fill="black"/>
<path d="M187.527 338.531H173.101V353.248H187.527V338.531Z" fill="black"/>
<path d="M201.954 103.028V88.3107H187.527H173.101V103.028H187.527H201.954Z" fill="black"/>
<path d="M173.101 353.249H158.674V367.966H173.101V353.249Z" fill="black"/>
<path d="M201.931 367.966H187.527H173.101V382.689H187.527H201.954V367.966H216.357V353.249H201.931V367.966Z" fill="black"/>
<path d="M302.899 353.249V367.966H288.501H274.069V382.689H288.501H302.928V367.966H317.326V353.249H302.928V338.531H317.326V323.814H302.899V338.531H288.501H274.069V353.249H288.501H302.899Z" fill="black"/>
<path d="M274.069 353.249H259.643V367.966H274.069V353.249Z" fill="black"/>
<path d="M245.216 456.283H230.813V471H245.245V456.283H259.643V441.559H245.216V456.283Z" fill="black"/>
<path d="M230.784 441.559H216.357V456.277H230.784V441.559Z" fill="black"/>
<path d="M245.216 29.4349H259.643V14.7175H245.245V0H230.813V14.7175H245.216V29.4349Z" fill="black"/>
<path d="M230.784 14.7175H216.357V29.4349H230.784V14.7175Z" fill="black"/>
<path d="M259.643 58.8758V44.1524H245.216H230.79V58.8758H245.216H259.643Z" fill="black"/>
<path d="M230.79 412.124V426.842H245.216H259.643V412.124H245.216H230.79Z" fill="black"/>
<path d="M216.404 426.901C208.469 426.901 199.686 426.63 191.78 427.118C182.449 427.689 173.868 427.689 164.607 426.171C158.53 425.17 152.482 423.139 147.485 419.459C137.883 412.595 132.926 401.216 130.081 389.765C127.83 380.764 126.567 371.569 125.522 362.338C128.229 363.292 130.987 364.122 133.786 364.84C135.5 374.006 138.258 383.16 143.994 390.76C149.632 398.166 157.07 404.136 165.616 407.456C171.733 409.834 183.563 412.136 216.352 412.136C216.352 412.136 216.352 412.118 216.352 412.107H230.778V397.389H216.357V397.407V397.436C194.112 397.436 191.44 397.884 179.2 397.748C165.83 397.619 152.079 392.992 145.235 380.764C142.615 376.167 140.814 371.239 139.452 366.135C145.685 367.354 152.102 367.995 158.651 367.995L158.646 353.278C151.098 353.278 143.665 352.689 136.469 351.471C136.146 349.51 135.829 347.544 135.505 345.584C134.998 342.199 134.53 338.802 134.074 335.399C142.026 337.46 150.272 338.56 158.64 338.56L158.646 323.843C149.788 323.843 140.861 322.948 132.187 321.088C131.939 319.269 131.685 317.45 131.42 315.631C129.054 300.66 126.59 285.413 120.49 271.455C118.447 266.786 115.406 262.654 112.221 258.745C107.535 252.705 101.124 247.177 93.4954 246.088C87.7709 241.796 80.9789 238.959 73.9272 238.264C73.4944 237.387 73.1078 236.463 72.7616 235.503C73.102 234.555 73.4829 233.643 73.9099 232.777C80.9674 232.088 87.7651 229.245 93.4954 224.948C101.124 223.858 107.535 218.331 112.221 212.291C115.406 208.376 118.447 204.249 120.49 199.581C126.584 185.622 129.054 170.375 131.42 155.405C131.685 153.586 131.939 151.766 132.187 149.947C140.861 148.087 149.793 147.192 158.646 147.192H173.072H187.499V132.475H173.072H158.646V147.033C158.646 145.438 158.64 132.475 158.64 132.475C150.272 132.475 142.032 133.576 134.074 135.636C134.524 132.233 134.992 128.831 135.505 125.452C135.829 123.485 136.14 121.525 136.469 119.565C143.665 118.352 151.098 117.757 158.646 117.757H173.072V103.04H158.646C152.096 103.04 145.685 103.687 139.452 104.9C140.814 99.7961 142.615 94.8687 145.235 90.271C152.073 78.0437 165.824 73.4166 179.2 73.2871C191.446 73.1516 194.117 73.5991 216.357 73.5991H230.784V58.8816H216.357C183.569 58.8816 171.733 61.1834 165.622 63.5617C157.076 66.882 149.638 72.8573 144 80.2572C138.264 87.8573 135.5 97.0116 133.792 106.178C130.993 106.896 128.234 107.726 125.528 108.68C126.572 99.4488 127.842 90.2533 130.087 81.2521C132.926 69.802 137.889 58.4224 147.491 51.5582C152.488 47.8788 158.536 45.8478 164.612 44.847C173.874 43.3282 182.455 43.3282 191.786 43.8992C199.692 44.382 208.475 44.117 216.409 44.117V29.4938C205.861 29.4938 194.821 29.2995 184.302 30.2708C169.085 31.6719 153.954 35.7457 142.211 46.3482C132.585 55.0374 127.352 67.353 124.911 80.0159C122.966 90.0885 121.817 100.244 120.975 110.422C100.391 118.817 82.9871 133.935 71.4921 153.521C67.2045 160.997 64.0768 169.062 61.405 177.216C58.7967 184.863 56.8289 192.805 53.8167 200.216C47.1747 194.736 38.8708 191.351 28.7953 191.351H14.4265V176.633H28.7953V161.916V147.198H14.3688V161.916V176.633H0V191.351H14.3688V206.068H28.7953C36.0144 206.068 43.1295 206.827 49.3329 209.218C48.7385 210.183 48.1211 211.137 47.4517 212.067C44.7799 215.693 41.6926 218.307 38.3053 220.173C30.8612 216.429 22.3784 216.323 14.288 216.453V217.041C22.4592 216.882 30.3361 217.471 37.1108 220.797C30.3419 224.123 22.465 224.712 14.3053 224.547V225.136C22.3957 225.265 30.8727 225.159 38.3111 221.421C41.6926 223.287 44.7741 225.895 47.4459 229.522C48.8251 231.441 50.0369 233.442 51.116 235.509C50.0369 237.575 48.8251 239.577 47.4459 241.496C44.7799 245.122 41.6926 247.73 38.3111 249.596C30.867 245.858 22.3957 245.752 14.3053 245.882V246.47C22.4707 246.311 30.3476 246.894 37.1108 250.22C30.3419 253.552 22.4592 254.141 14.288 253.976V254.565C22.3842 254.695 30.8612 254.589 38.3053 250.844C41.6926 252.711 44.7799 255.324 47.4517 258.951C48.1153 259.875 48.727 260.817 49.3156 261.777C43.118 264.167 36.0086 264.92 28.7953 264.92H14.3688V279.638H0V294.355H14.3861V309.073H14.3804V323.79H28.8069V309.073H28.8126V294.355H14.4265V279.638H28.7953C38.8593 279.638 47.1632 276.253 53.8051 270.778C56.8232 278.201 58.7852 286.149 61.3993 293.802C64.071 301.955 67.1987 310.02 71.4863 317.497C82.9813 337.077 100.385 352.201 120.969 360.595C121.812 370.774 122.966 380.923 124.905 391.002C127.346 403.671 132.58 415.98 142.205 424.669C153.948 435.272 169.079 439.346 184.296 440.747C194.816 441.718 205.855 441.524 216.404 441.524V426.901ZM91.5853 245.911C91.1352 245.893 90.6793 245.888 90.2234 245.899C90.2234 245.899 90.033 245.899 89.7445 245.899V245.882C88.0017 245.852 86.2417 245.893 84.5452 245.711C79.2477 245.234 76.2586 242.579 74.2908 238.959C80.5346 239.659 86.4321 242.208 91.5853 245.911ZM79.242 245.352C81.556 246.311 84.0431 246.482 86.5129 246.494V246.5L90.2119 246.512C91.0025 246.5 91.7815 246.535 92.549 246.623C96.675 249.761 100.282 253.641 103.155 257.879C107.374 264.326 109.826 271.755 111.794 279.226C115.02 291.682 116.745 304.316 117.893 317.026C100.974 310.945 85.9359 300.631 75.67 285.395C70.3956 277.571 66.6967 268.847 63.3324 259.999C64.4461 258.28 65.4791 256.49 66.4255 254.647C68.122 251.245 69.2646 247.707 70.234 244.233C70.7419 242.42 71.2093 240.572 71.7229 238.776C71.8498 238.782 71.971 238.782 72.098 238.788C73.8176 241.655 76.022 244.092 79.242 245.352ZM68.6875 232.883C68.8722 232.895 69.0568 232.895 69.2415 232.901C69.5993 233.772 69.9744 234.643 70.3726 235.503C69.9744 236.374 69.5935 237.251 69.23 238.134C69.0511 238.14 68.8722 238.14 68.6933 238.152L59.4892 238.164V238.753C60.9376 238.729 65.9696 238.764 68.9761 238.77C68.3644 240.265 67.7815 241.743 67.1641 243.115C65.7791 246.341 64.2326 249.408 62.2995 252.092C61.8782 252.669 61.4396 253.217 60.9895 253.747C60.6952 252.94 60.4009 252.145 60.1066 251.351C58.1504 246.105 56.0326 240.566 53.2454 235.515C56.0268 230.458 58.1446 224.918 60.1066 219.679C60.4009 218.878 60.701 218.077 60.9953 217.271C61.4454 217.795 61.8782 218.342 62.2937 218.913C64.2269 221.598 65.7734 224.671 67.1583 227.891C67.7758 229.275 68.3644 230.764 68.9818 232.265C65.9811 232.271 60.9376 232.306 59.4834 232.283V232.871L68.6875 232.883ZM74.2677 232.077C76.2355 228.439 79.2247 225.772 84.5394 225.289C85.982 225.13 87.4651 225.136 88.9424 225.124C89.6406 225.124 90.2177 225.13 90.2177 225.13C90.6735 225.142 91.1294 225.136 91.5795 225.118C86.4321 228.827 80.523 231.376 74.2677 232.077ZM92.5432 224.412C91.7757 224.494 91.0025 224.535 90.2061 224.524C90.2119 224.518 89.4617 224.518 88.7923 224.524C85.5839 224.488 82.2658 224.4 79.2362 225.654C76.0047 226.914 73.7945 229.363 72.0749 232.247C71.9595 232.253 71.844 232.253 71.7286 232.253C71.2093 230.446 70.7419 228.586 70.234 226.767C69.2704 223.293 68.122 219.755 66.4255 216.353C65.4791 214.51 64.4519 212.726 63.3324 211.019C66.6967 202.177 70.3956 193.458 75.6642 185.64C85.9301 170.405 100.968 160.091 117.888 154.009C116.739 166.719 115.02 179.353 111.788 191.81C109.826 199.28 107.368 206.71 103.15 213.156C100.276 217.4 96.6634 221.274 92.5432 224.412ZM124.068 122.355C126.567 121.643 129.1 121.007 131.674 120.465C131.022 125.887 130.508 131.327 130.023 136.766C127.45 137.549 124.911 138.438 122.406 139.427C122.966 133.729 123.497 128.036 124.068 122.355ZM120.981 152.956C123.549 152.12 126.145 151.378 128.783 150.73C128.638 152.149 128.5 153.58 128.356 154.998C127.357 164.989 125.834 174.914 123.549 184.675C121.8 191.927 119.625 199.174 115.689 205.503C114.356 207.563 112.827 209.588 111.338 211.555C107.12 217.236 101.499 222.487 94.6668 224.047C109.919 212.296 114.27 192.081 117.934 173.978C119.192 167.014 120.161 159.991 120.981 152.956ZM60.1182 190.238C64.4634 178.511 68.6933 166.566 75.6757 156.199C86.5129 140.122 102.07 129.52 120.017 123.597C119.642 129.361 119.302 135.13 118.909 140.887C99.341 149.459 82.5139 164.147 71.4747 182.95C67.1872 190.426 64.0595 198.491 61.3877 206.645C61.2608 207.01 61.1453 207.381 61.0184 207.752C59.3391 205.55 57.4868 203.513 55.4786 201.67C57.2329 197.897 58.7159 193.994 60.1182 190.238ZM39.5229 220.797C44.3183 218.195 47.9941 214.345 50.9602 209.883C53.8109 211.154 56.4365 212.814 58.7563 214.946C56.8232 221.292 54.9131 227.632 52.1028 233.525C48.9463 228.309 44.953 223.753 39.5229 220.797ZM50.9487 261.117C47.9826 256.673 44.3067 252.828 39.5229 250.232C44.953 247.277 48.9463 242.726 52.1028 237.499C54.9131 243.386 56.8174 249.72 58.7505 256.054C56.4308 258.185 53.7994 259.846 50.9487 261.117ZM75.6757 314.83C68.6933 304.463 64.4634 292.518 60.1182 280.792C58.7159 277.03 57.2271 273.121 55.4728 269.341C57.4868 267.499 59.3334 265.456 61.0184 263.26C61.1453 263.637 61.2665 264.014 61.3935 264.384C64.0653 272.538 67.1929 280.603 71.4805 288.08C82.5197 306.883 99.341 321.565 118.915 330.142C119.307 335.9 119.648 341.669 120.023 347.432C102.07 341.51 86.5129 330.907 75.6757 314.83ZM117.922 297.057C114.258 278.955 109.907 258.739 94.6553 246.988C101.493 248.543 107.12 253.794 111.332 259.475C112.821 261.441 114.35 263.466 115.683 265.527C119.619 271.855 121.794 279.102 123.543 286.355C125.828 296.115 127.357 306.041 128.35 316.031C128.494 317.456 128.633 318.88 128.771 320.305C126.14 319.657 123.537 318.91 120.969 318.08C120.15 311.039 119.18 304.022 117.922 297.057ZM124.068 348.674C123.497 342.993 122.966 337.301 122.406 331.602C124.905 332.591 127.444 333.474 130.023 334.263C130.508 339.697 131.022 345.142 131.674 350.564C129.1 350.022 126.567 349.387 124.068 348.674Z" fill="black"/>
<path d="M245.216 367.966H230.79V382.689H245.216V397.377H259.643V382.654H245.216V367.966Z" fill="black"/>
<path d="M230.784 338.531H216.357V353.248H230.784V338.531Z" fill="black"/>
<path d="M259.643 73.5932H245.216V88.3107H259.643V73.5932Z" fill="black"/>
<path d="M245.216 88.3107H230.79V103.028H245.216V88.3107Z" fill="black"/>
<path d="M288.501 88.3107H274.069V103.028H288.501H302.922V117.751H288.501V132.469H302.922V147.186H317.349V132.469H302.928V117.751H317.349V103.028H302.928V88.3107H288.501Z" fill="black"/>
<path d="M274.069 103.028H259.643V117.746H274.069V103.028Z" fill="black"/>
<path d="M28.8069 323.814V338.531H43.2219V353.249H57.6484V338.531H43.2334V323.814H28.8069Z" fill="black"/>
<path d="M43.2275 132.469H28.801V147.186H43.2275V132.469Z" fill="black"/>
<path d="M72.0806 338.531H57.6541V353.248H72.0806V338.531Z" fill="black"/>
<path d="M43.2275 117.751V132.469H57.6541H72.0806V117.751H57.6541H43.2275Z" fill="black"/>
<path d="M418.357 353.249H432.778V338.531H447.193V323.814H432.761V338.531H418.357H418.352H403.931V353.249H418.352H418.357Z" fill="black"/>
<path d="M447.199 132.469H432.772V147.186H447.199V132.469Z" fill="black"/>
<path d="M418.357 117.751H418.346H403.931V132.469H418.346H418.357H432.772V117.751H418.357Z" fill="black"/>
<path d="M461.631 279.655V264.938H447.21C440.02 264.938 432.934 264.184 426.754 261.818C427.348 260.852 427.965 259.899 428.635 258.968C431.307 255.342 434.394 252.728 437.781 250.862C445.225 254.606 453.708 254.712 461.799 254.583V253.994C453.627 254.153 445.75 253.564 438.976 250.238C445.745 246.912 453.622 246.323 461.781 246.488V245.899C453.691 245.77 445.214 245.876 437.775 249.614C434.394 247.748 431.312 245.14 428.641 241.514C427.261 239.594 426.05 237.593 424.971 235.527C426.05 233.46 427.261 231.459 428.641 229.539C431.307 225.913 434.394 223.305 437.775 221.439C445.22 225.177 453.691 225.283 461.781 225.154V224.565C453.616 224.724 445.739 224.141 438.976 220.815C445.745 217.483 453.627 216.894 461.799 217.059V216.47C453.702 216.341 445.225 216.447 437.781 220.191C434.394 218.325 431.307 215.711 428.635 212.085C427.96 211.148 427.336 210.183 426.742 209.212C432.928 206.839 440.02 206.086 447.216 206.086H461.625V206.062V191.345H475.994V176.627H461.625V161.91V147.192H447.199V161.91V176.627H461.568V191.345H447.199C437.158 191.345 428.871 194.718 422.247 200.163C419.246 192.758 417.284 184.84 414.682 177.21C412.01 169.057 408.882 160.991 404.594 153.515C393.099 133.935 375.695 118.811 355.112 110.416C354.269 100.238 353.115 90.0885 351.176 80.01C348.735 67.3412 343.501 55.0315 333.876 46.3423C322.133 35.7399 307.002 31.6661 291.785 30.265C281.265 29.2936 270.226 29.4879 259.677 29.4879V44.1112C267.612 44.1112 276.395 44.382 284.3 43.8934C293.632 43.3223 302.212 43.3223 311.474 44.8412C317.551 45.8419 323.598 47.873 328.596 51.5523C338.198 58.4165 343.161 69.7961 346 81.2463C348.25 90.2475 349.514 99.443 350.559 108.674C347.852 107.72 345.094 106.89 342.295 106.172C340.581 97.0057 337.823 87.8515 332.087 80.2514C326.455 72.8456 319.011 66.8762 310.464 63.5559C304.348 61.1776 292.518 58.8757 259.729 58.8757V73.5932C281.975 73.5932 284.647 73.1458 296.886 73.2812C310.257 73.4107 324.008 78.0379 330.852 90.2651C333.472 94.8629 335.272 99.7903 336.634 104.894C330.402 103.676 323.985 103.034 317.435 103.034L317.441 117.751C324.989 117.751 332.422 118.34 339.617 119.559C339.941 121.519 340.258 123.485 340.581 125.446C341.089 128.831 341.556 132.228 342.012 135.63C334.06 133.57 325.814 132.469 317.447 132.469L317.441 147.186C326.299 147.186 335.226 148.081 343.899 149.942C344.147 151.761 344.401 153.58 344.667 155.399C347.033 170.369 349.497 185.617 355.596 199.575C357.639 204.243 360.68 208.376 363.866 212.285C368.551 218.325 374.962 223.853 382.591 224.942C388.298 229.222 395.067 232.053 402.096 232.76C402.523 233.631 402.904 234.549 403.25 235.497C402.904 236.463 402.517 237.387 402.079 238.27C395.056 238.976 388.293 241.808 382.591 246.088C374.962 247.177 368.551 252.705 363.866 258.745C360.68 262.66 357.639 266.786 355.596 271.455C349.503 285.413 347.033 300.66 344.667 315.631C344.401 317.45 344.147 319.269 343.899 321.088C335.226 322.948 326.293 323.843 317.441 323.843L317.447 338.561C325.814 338.561 334.055 337.46 342.012 335.399C341.556 338.802 341.095 342.205 340.581 345.584C340.258 347.55 339.946 349.51 339.617 351.471C332.422 352.683 324.989 353.278 317.441 353.278L317.435 367.995C323.985 367.995 330.402 367.354 336.634 366.135C335.272 371.239 333.472 376.167 330.852 380.764C324.014 392.992 310.262 397.619 296.886 397.748C284.641 397.884 281.969 397.436 259.729 397.436V412.154C292.518 412.154 304.353 409.852 310.464 407.474C319.011 404.153 326.449 398.178 332.087 390.778C337.823 383.172 340.587 374.024 342.295 364.858C345.094 364.139 347.852 363.309 350.559 362.356C349.514 371.587 348.245 380.782 346 389.783C343.161 401.233 338.198 412.613 328.596 419.477C323.598 423.157 317.551 425.188 311.474 426.188C302.212 427.707 293.632 427.707 284.3 427.136C276.395 426.653 267.612 426.918 259.677 426.918V441.542C270.226 441.542 281.265 441.736 291.785 440.764C307.002 439.363 322.133 435.29 333.876 424.687C343.501 415.998 348.735 403.682 351.176 391.019C353.121 380.947 354.269 370.792 355.112 360.613C375.695 352.218 393.099 337.101 404.594 317.515C408.882 310.038 412.01 301.973 414.682 293.819C417.29 286.178 419.252 278.248 422.258 270.843C428.889 276.288 437.17 279.655 447.205 279.655H461.573V294.373H447.187V309.09H447.193V323.808H461.62V309.09H461.614V294.373H476V279.655H461.631ZM425.103 209.859C428.075 214.327 431.757 218.189 436.558 220.797C431.128 223.753 427.134 228.303 423.978 233.531C421.156 227.614 419.246 221.256 417.307 214.893C419.627 212.773 422.253 211.125 425.103 209.859ZM407.387 238.14C407.18 238.129 406.978 238.129 406.77 238.123C406.406 237.245 406.031 236.362 405.627 235.497C406.026 234.638 406.395 233.766 406.758 232.901C406.966 232.895 407.18 232.895 407.387 232.883L416.592 232.871V232.283C415.126 232.306 410.007 232.271 407.018 232.265C407.636 230.758 408.224 229.275 408.842 227.891C410.227 224.665 411.773 221.598 413.706 218.913C414.139 218.319 414.595 217.754 415.062 217.206C415.368 218.03 415.674 218.855 415.974 219.679C417.93 224.924 420.048 230.464 422.835 235.515C420.054 240.572 417.93 246.111 415.974 251.351C415.674 252.169 415.374 252.987 415.068 253.8C414.595 253.252 414.145 252.681 413.706 252.081C411.773 249.396 410.227 246.323 408.842 243.103C408.23 241.726 407.647 240.254 407.03 238.758C410.019 238.753 415.132 238.717 416.592 238.741V238.152L407.387 238.14ZM400.405 156.199C407.387 166.566 411.617 178.511 415.963 190.238C417.359 193.976 418.831 197.862 420.573 201.617C418.565 203.454 416.713 205.485 415.034 207.675C414.918 207.334 414.808 206.986 414.693 206.645C412.021 198.491 408.894 190.426 404.606 182.95C393.567 164.147 376.746 149.465 357.172 140.887C356.779 135.13 356.439 129.361 356.064 123.597C374.01 129.52 389.568 140.122 400.405 156.199ZM344.407 120.465C346.981 121.007 349.514 121.643 352.013 122.355C352.584 128.036 353.115 133.729 353.675 139.427C351.176 138.438 348.637 137.555 346.057 136.766C345.573 131.327 345.059 125.887 344.407 120.465ZM364.748 211.555C363.26 209.588 361.73 207.563 360.397 205.503C356.462 199.174 354.286 191.927 352.538 184.675C350.253 174.914 348.723 164.989 347.731 154.998C347.587 153.574 347.448 152.149 347.31 150.724C349.941 151.372 352.544 152.12 355.112 152.95C355.931 159.991 356.9 167.008 358.158 173.972C361.823 192.075 366.174 212.291 381.425 224.041C374.587 222.487 368.967 217.236 364.748 211.555ZM384.495 225.118C384.946 225.136 385.401 225.142 385.857 225.13C385.857 225.13 386.406 225.13 387.075 225.124C388.546 225.136 390.024 225.13 391.461 225.289C396.77 225.766 399.759 228.433 401.727 232.065C395.506 231.353 389.631 228.809 384.495 225.118ZM396.758 225.648C393.746 224.4 390.433 224.488 387.231 224.524C386.596 224.524 385.869 224.518 385.869 224.518C385.078 224.53 384.299 224.494 383.532 224.406C379.406 221.268 375.793 217.389 372.925 213.15C368.707 206.704 366.255 199.274 364.287 191.804C361.061 179.347 359.336 166.714 358.187 154.004C375.107 160.085 390.145 170.399 400.411 185.634C405.662 193.429 409.355 202.118 412.714 210.937C411.577 212.673 410.532 214.481 409.575 216.347C407.878 219.749 406.735 223.287 405.766 226.761C405.258 228.58 404.791 230.44 404.271 232.247C404.156 232.242 404.041 232.242 403.919 232.242C402.2 229.357 399.99 226.914 396.758 225.648ZM401.715 238.965C399.747 242.579 396.758 245.234 391.466 245.711C389.77 245.893 388.01 245.852 386.267 245.882V245.899C386.025 245.899 385.863 245.899 385.863 245.899C385.401 245.888 384.951 245.893 384.501 245.911C389.626 242.22 395.494 239.677 401.715 238.965ZM383.538 246.629C384.305 246.547 385.078 246.506 385.875 246.518L389.574 246.5V246.494C392.026 246.476 394.479 246.3 396.77 245.352C399.99 244.092 402.194 241.661 403.914 238.794C404.041 238.788 404.167 238.788 404.289 238.782C404.802 240.578 405.27 242.426 405.777 244.239C406.741 247.713 407.89 251.251 409.586 254.653C410.544 256.525 411.594 258.339 412.731 260.075C409.373 268.9 405.674 277.601 400.417 285.401C390.151 300.637 375.112 310.951 358.193 317.032C359.341 304.322 361.061 291.688 364.293 279.231C366.255 271.761 368.713 264.332 372.931 257.885C375.805 253.641 379.417 249.767 383.538 246.629ZM352.013 348.674C349.514 349.387 346.981 350.022 344.407 350.564C345.059 345.142 345.573 339.697 346.057 334.263C348.631 333.48 351.17 332.591 353.675 331.602C353.115 337.301 352.584 342.993 352.013 348.674ZM355.106 318.074C352.538 318.91 349.941 319.652 347.304 320.299C347.442 318.88 347.581 317.45 347.731 316.031C348.723 306.041 350.253 296.115 352.538 286.355C354.286 279.102 356.462 271.855 360.397 265.527C361.73 263.466 363.26 261.441 364.748 259.475C368.967 253.794 374.587 248.543 381.42 246.983C366.168 258.733 361.817 278.949 358.153 297.051C356.895 304.016 355.925 311.039 355.106 318.074ZM415.963 280.792C411.617 292.518 407.387 304.463 400.405 314.83C389.568 330.907 374.01 341.51 356.064 347.432C356.439 341.669 356.779 335.9 357.172 330.142C376.74 321.571 393.567 306.883 404.606 288.08C408.894 280.603 412.021 272.538 414.693 264.385C414.814 264.037 414.924 263.684 415.045 263.331C416.73 265.521 418.577 267.552 420.591 269.388C418.842 273.156 417.359 277.047 415.963 280.792ZM417.313 256.113C419.252 249.761 421.162 243.403 423.978 237.499C427.134 242.72 431.128 247.277 436.558 250.232C431.763 252.84 428.087 256.69 425.115 261.147C422.264 259.881 419.633 258.233 417.313 256.113Z" fill="black"/>
<path d="M130.289 411.129C129.954 410.564 129.544 409.705 129.163 409.181C128.702 408.551 127.727 406.979 127.207 406.426C126.082 404.983 124.697 403.547 123.387 402.269C110.063 389.936 89.5424 391.22 75.4852 401.598C82.6177 393.498 86.4898 382.719 86.5071 371.846V367.966V353.249H72.0806V367.966V371.84C72.0806 380.152 70.7649 388.194 65.7618 394.734C58.9871 404.059 46.1129 409.758 34.4678 407.091C26.6198 405.278 20.0759 399.697 16.6193 392.315C16.1807 391.178 15.621 389.948 15.3209 388.753C14.9747 387.687 14.64 386.157 14.4726 385.032C14.3457 384.485 14.2707 383.702 14.2418 383.131C13.5666 376.82 15.6845 370.303 19.9893 365.617C26.7409 358.041 39.3497 355.539 47.4286 362.426C52.3567 366.471 55.1439 373.494 53.7474 379.922C52.397 386.451 46.3437 391.432 39.7998 391.473C34.5601 391.638 29.5454 387.799 28.2759 382.589C26.4409 376.484 30.74 370.074 37.0703 369.95C41.7387 369.661 45.8474 374.595 44.5721 379.24C43.8969 381.818 41.4271 383.702 38.8188 383.672C38.8188 383.672 38.8188 384.308 38.8015 384.308C41.681 384.332 44.3932 382.248 45.1319 379.404C46.084 375.878 44.2432 371.94 41.1213 370.232C36.6606 367.76 30.74 370.05 28.3452 374.459C26.1812 378.239 26.7756 383.172 29.0434 386.763C31.3574 390.437 35.5065 392.738 39.794 392.727C46.2283 392.803 52.4374 388.576 54.7688 382.424C56.6673 377.668 56.1364 372.163 54.0763 367.542C47.2035 352.548 28.1547 352.112 17.3868 363.044C9.14058 371.286 7.90567 383.631 11.974 394.334C12.5337 395.529 13.1569 397.307 13.8783 398.402C14.2129 398.967 14.6227 399.826 15.0035 400.35C15.4652 400.98 16.4404 402.552 16.9598 403.105C18.085 404.548 19.47 405.984 20.7799 407.262C34.1042 419.595 54.6245 418.311 68.6817 407.933C61.5492 416.033 57.6772 426.812 57.6598 437.686V441.565H72.0806V456.277H86.5071V441.559H72.0864V437.691C72.0864 429.379 73.4021 421.337 78.4052 414.797C85.1799 405.472 98.0541 399.773 109.699 402.44C117.547 404.253 124.091 409.834 127.548 417.217C127.986 418.353 128.546 419.583 128.846 420.778C129.192 421.844 129.527 423.374 129.694 424.499C129.821 425.046 129.896 425.829 129.925 426.4C130.6 432.711 128.482 439.228 124.178 443.914C117.426 451.491 104.817 453.993 96.7384 447.105C91.8103 443.06 89.0231 436.037 90.4196 429.609C91.7699 423.08 97.8233 418.1 104.367 418.058C109.607 417.894 114.622 421.732 115.891 426.942C117.726 433.047 113.427 439.458 107.097 439.581C102.428 439.87 98.3195 434.936 99.5948 430.292C100.27 427.713 102.74 425.829 105.348 425.859C105.348 425.859 105.348 425.223 105.365 425.223C102.486 425.199 99.7737 427.283 99.0351 430.127C98.0829 433.653 99.9238 437.591 103.046 439.299C107.506 441.771 113.427 439.481 115.822 435.072C117.986 431.292 117.391 426.359 115.124 422.768C112.81 419.094 108.66 416.793 104.373 416.804C97.9387 416.728 91.7295 420.955 89.3982 427.107C87.4996 431.863 88.0305 437.368 90.0907 441.989C96.9634 456.983 116.012 457.419 126.78 446.487C135.026 438.245 136.261 425.9 132.193 415.197C131.633 414.002 131.01 412.224 130.289 411.129Z" fill="black"/>
<path d="M86.5071 14.7175H72.0806V29.4349H86.5071V14.7175Z" fill="black"/>
<path d="M54.0763 103.458C56.1364 98.8366 56.6673 93.3323 54.7688 88.5756C52.4374 82.4237 46.2283 78.1968 39.794 78.2734C35.5065 78.2616 31.3574 80.5634 29.0434 84.2369C26.7756 87.8279 26.1812 92.7612 28.3452 96.5407C30.74 100.95 36.6606 103.24 41.1213 100.768C44.2432 99.0603 46.084 95.1219 45.1319 91.5956C44.3932 88.7522 41.681 86.6682 38.8015 86.6918C38.8188 86.6918 38.8188 87.3276 38.8188 87.3276C41.4271 87.2981 43.8969 89.182 44.5721 91.7605C45.8474 96.4053 41.7387 101.339 37.0703 101.05C30.74 100.926 26.4409 94.5156 28.2759 88.4108C29.5454 83.2008 34.5601 79.3625 39.7998 79.5273C46.3437 79.5685 52.397 84.5489 53.7474 91.0776C55.1439 97.5062 52.3567 104.529 47.4286 108.574C39.3497 115.461 26.7409 112.959 19.9893 105.383C15.6845 100.697 13.5666 94.18 14.2418 87.8692C14.2707 87.2981 14.3457 86.5152 14.4726 85.9677C14.64 84.8432 14.9747 83.3126 15.3209 82.2471C15.621 81.052 16.1807 79.8217 16.6193 78.6855C20.0759 71.3032 26.6198 65.7223 34.4678 63.9091C46.1129 61.2423 58.9871 66.9409 65.7618 76.2659C70.7649 82.8064 72.0806 90.848 72.0806 99.1604V103.028V103.034V117.746H86.5071V103.034V103.028V99.1545C86.4898 88.2812 82.6177 77.5022 75.4852 69.4017C89.5424 79.7804 110.063 81.0697 123.387 68.7306C124.697 67.4531 126.082 66.0167 127.207 64.5744C127.727 64.021 128.702 62.4492 129.163 61.8192C129.544 61.2953 129.954 60.4358 130.289 59.8707C131.01 58.7757 131.633 56.9978 132.193 55.8027C136.261 45.1002 135.026 32.7552 126.78 24.5134C116.012 13.5813 96.9634 14.0169 90.0907 29.0111C88.0305 33.6324 87.4996 39.1367 89.3982 43.8934C91.7295 50.0453 97.9387 54.2721 104.373 54.1956C108.66 54.2074 112.81 51.9056 115.124 48.2321C117.391 44.641 117.986 39.7077 115.822 35.9283C113.427 31.5189 107.506 29.2289 103.046 31.7014C99.9238 33.4087 98.0829 37.347 99.0351 40.8734C99.7737 43.7168 102.486 45.8008 105.365 45.7772C105.348 45.7772 105.348 45.1414 105.348 45.1414C102.74 45.1709 100.27 43.287 99.5948 40.7085C98.3195 36.0637 102.428 31.1304 107.097 31.4189C113.427 31.5425 117.726 37.9534 115.891 44.0582C114.622 49.2682 109.607 53.1065 104.367 52.9417C97.8233 52.9005 91.7699 47.9201 90.4196 41.3914C89.0231 34.9628 91.8103 27.9396 96.7384 23.8953C104.817 17.0075 117.426 19.5095 124.178 27.086C128.482 31.7721 130.6 38.289 129.925 44.5998C129.896 45.1709 129.821 45.9538 129.694 46.5013C129.527 47.6257 129.192 49.1563 128.846 50.2219C128.546 51.4169 127.986 52.6473 127.548 53.7835C124.091 61.1658 117.547 66.7467 109.699 68.5598C98.0541 71.2267 85.1799 65.528 78.4052 56.2031C73.4021 49.6626 72.0864 41.621 72.0864 33.3086V29.4349H57.6598V33.3145C57.6772 44.1877 61.5492 54.9668 68.6817 63.0673C54.6245 52.6885 34.1042 51.3993 20.7799 63.7384C19.47 65.0159 18.085 66.4523 16.9598 67.8946C16.4404 68.448 15.4652 70.0198 15.0035 70.6497C14.6227 71.1737 14.2129 72.0332 13.8783 72.5983C13.1569 73.6933 12.5337 75.4712 11.974 76.6662C7.90567 87.3688 9.14058 99.7138 17.3868 107.956C28.1547 118.888 47.2035 118.452 54.0763 103.458Z" fill="black"/>
<path d="M403.931 14.7175H389.504V29.4349H403.931V14.7175Z" fill="black"/>
<path d="M345.729 59.8707C346.063 60.4358 346.473 61.2953 346.854 61.8192C347.316 62.4492 348.291 64.021 348.81 64.5744C349.935 66.0167 351.32 67.4531 352.63 68.7306C365.949 81.0638 386.458 79.7804 400.515 69.4135C393.388 77.514 389.522 88.2871 389.504 99.1545V103.028V117.746H403.931V103.034V99.1604C403.931 90.848 405.247 82.8064 410.25 76.2659C417.024 66.9409 429.899 61.2423 441.544 63.9091C449.392 65.7223 455.936 71.3032 459.392 78.6855C459.831 79.8217 460.391 81.052 460.691 82.2471C461.037 83.3126 461.372 84.8432 461.539 85.9677C461.666 86.5152 461.741 87.2981 461.77 87.8692C462.445 94.18 460.327 100.697 456.022 105.383C449.271 112.959 436.662 115.461 428.583 108.574C423.655 104.529 420.868 97.5062 422.264 91.0776C423.614 84.5489 429.668 79.5685 436.212 79.5273C441.451 79.3625 446.466 83.2008 447.736 88.4108C449.571 94.5156 445.272 100.926 438.941 101.05C434.273 101.339 430.164 96.4053 431.439 91.7605C432.115 89.182 434.584 87.2981 437.193 87.3276C437.193 87.3276 437.193 86.6918 437.21 86.6918C434.33 86.6682 431.618 88.7522 430.88 91.5956C429.928 95.1219 431.768 99.0603 434.89 100.768C439.351 103.24 445.272 100.95 447.666 96.5407C449.83 92.7612 449.236 87.8279 446.968 84.2369C444.654 80.5634 440.505 78.2616 436.217 78.2734C429.783 78.1968 423.574 82.4237 421.243 88.5756C419.344 93.3323 419.875 98.8366 421.935 103.458C428.808 118.452 447.857 118.888 458.625 107.956C466.871 99.7138 468.106 87.3688 464.038 76.6662C463.478 75.4712 462.855 73.6933 462.133 72.5983C461.799 72.0332 461.389 71.1737 461.008 70.6497C460.546 70.0198 459.571 68.448 459.052 67.8946C457.926 66.4523 456.542 65.0159 455.232 63.7384C441.913 51.4052 421.404 52.6885 407.347 63.0555C414.474 54.955 418.34 44.1818 418.357 33.3145V29.4349H403.931V33.3086C403.931 41.621 402.615 49.6626 397.612 56.2031C390.837 65.528 377.963 71.2267 366.318 68.5598C358.47 66.7467 351.926 61.1658 348.47 53.7835C348.031 52.6473 347.471 51.4169 347.171 50.2219C346.825 49.1563 346.49 47.6257 346.323 46.5013C346.196 45.9538 346.121 45.1709 346.092 44.5998C345.417 38.289 347.535 31.7721 351.84 27.086C358.591 19.5095 371.2 17.0075 379.279 23.8953C384.207 27.9396 386.994 34.9628 385.598 41.3914C384.247 47.9201 378.194 52.9005 371.65 52.9417C366.41 53.1065 361.396 49.2682 360.126 44.0582C358.291 37.9534 362.59 31.5425 368.921 31.4189C373.589 31.1304 377.698 36.0637 376.422 40.7085C375.747 43.287 373.277 45.1709 370.669 45.1414C370.669 45.1414 370.669 45.7772 370.652 45.7772C373.531 45.8008 376.244 43.7168 376.982 40.8734C377.934 37.347 376.094 33.4087 372.972 31.7014C368.511 29.2289 362.59 31.5189 360.196 35.9283C358.032 39.7077 358.626 44.641 360.894 48.2321C363.208 51.9056 367.357 54.2074 371.644 54.1956C378.079 54.2721 384.288 50.0453 386.619 43.8934C388.518 39.1367 387.987 33.6324 385.927 29.0111C379.054 14.0169 360.005 13.5813 349.237 24.5134C340.991 32.7552 339.756 45.1002 343.824 55.8027C344.384 56.9978 345.007 58.7757 345.729 59.8707Z" fill="black"/>
<path d="M421.935 367.542C419.875 372.163 419.344 377.668 421.243 382.424C423.574 388.576 429.783 392.803 436.217 392.727C440.505 392.738 444.654 390.437 446.968 386.763C449.236 383.172 449.83 378.239 447.666 374.459C445.272 370.05 439.351 367.76 434.89 370.232C431.768 371.94 429.928 375.878 430.88 379.404C431.618 382.248 434.33 384.332 437.21 384.308C437.193 384.308 437.193 383.672 437.193 383.672C434.584 383.702 432.115 381.818 431.439 379.24C430.164 374.595 434.273 369.661 438.941 369.95C445.272 370.074 449.571 376.484 447.736 382.589C446.466 387.799 441.451 391.638 436.212 391.473C429.668 391.432 423.614 386.451 422.264 379.922C420.868 373.494 423.655 366.471 428.583 362.426C436.662 355.539 449.271 358.041 456.022 365.617C460.327 370.303 462.445 376.82 461.77 383.131C461.741 383.702 461.666 384.485 461.539 385.032C461.372 386.157 461.037 387.687 460.691 388.753C460.391 389.948 459.831 391.178 459.392 392.315C455.936 399.697 449.392 405.278 441.544 407.091C429.899 409.758 417.024 404.059 410.25 394.734C405.247 388.194 403.931 380.152 403.931 371.84V367.966V353.249H389.504V367.966V371.846C389.522 382.713 393.388 393.492 400.515 401.587C386.458 391.22 365.949 389.936 352.63 402.269C351.32 403.547 349.935 404.983 348.81 406.426C348.291 406.979 347.316 408.551 346.854 409.181C346.473 409.705 346.063 410.564 345.729 411.129C345.007 412.224 344.384 414.002 343.824 415.197C339.756 425.9 340.991 438.245 349.237 446.487C360.005 457.419 379.054 456.983 385.927 441.989C387.987 437.368 388.518 431.863 386.619 427.107C384.288 420.955 378.079 416.728 371.644 416.804C367.357 416.793 363.208 419.094 360.894 422.768C358.626 426.359 358.032 431.292 360.196 435.072C362.59 439.481 368.511 441.771 372.972 439.299C376.094 437.591 377.934 433.653 376.982 430.127C376.244 427.283 373.531 425.199 370.652 425.223C370.669 425.223 370.669 425.859 370.669 425.859C373.277 425.829 375.747 427.713 376.422 430.292C377.698 434.936 373.589 439.87 368.921 439.581C362.59 439.458 358.291 433.047 360.126 426.942C361.396 421.732 366.41 417.894 371.65 418.058C378.194 418.1 384.247 423.08 385.598 429.609C386.994 436.037 384.207 443.06 379.279 447.105C371.2 453.993 358.591 451.491 351.84 443.914C347.535 439.228 345.417 432.711 346.092 426.4C346.121 425.829 346.196 425.046 346.323 424.499C346.49 423.374 346.825 421.844 347.171 420.778C347.471 419.583 348.031 418.353 348.47 417.217C351.926 409.834 358.47 404.253 366.318 402.44C377.963 399.773 390.837 405.472 397.612 414.797C402.615 421.337 403.931 429.379 403.931 437.691V441.559H389.504V456.277H403.931V441.565H418.357V437.686C418.34 426.818 414.474 416.039 407.347 407.945C421.404 418.311 441.913 419.595 455.232 407.262C456.542 405.984 457.926 404.548 459.052 403.105C459.571 402.552 460.546 400.98 461.008 400.35C461.389 399.826 461.799 398.967 462.133 398.402C462.855 397.307 463.478 395.529 464.038 394.334C468.106 383.631 466.871 371.286 458.625 363.044C447.857 352.112 428.808 352.548 421.935 367.542Z" fill="black"/>
<path d="M231.182 325.98C254.576 327.552 278.334 319.151 295.905 303.333C312.398 288.739 323.425 267.981 326.582 245.929C330.379 218.796 325.872 190.526 310.995 167.644C290.741 135.954 262.263 117.746 216.352 117.746V132.463H201.931V117.751H187.504V132.469H201.931V147.181H216.352H216.357H218.827H230.784V161.898H218.827H216.357H216.352V176.633C216.369 176.633 219.572 176.857 219.572 176.857C225.55 177.151 231.476 178.323 237.201 180.042C260.208 186.871 277.659 209.047 278.824 233.437C280.555 255.742 266.631 276.812 245.557 283.117C226.531 288.998 206.507 281.386 198.111 262.542C194.314 253.823 193.61 243.456 197.482 234.655C202.179 223.635 213.663 216.152 225.452 216.682C240.115 216.977 251.674 231.994 247.548 246.529C244.945 255.79 234.87 262.083 225.648 259.681C213.253 256.555 209.462 238.199 222.474 233.142C229.641 230.464 237.224 236.139 235.81 244.021C234.91 248.731 229.105 251.804 225.025 249.108C223.069 247.848 221.949 245.411 222.29 243.085C222.428 241.92 223.028 240.913 223.865 240.177C224.742 239.288 225.954 238.741 227.287 238.741C229.468 238.741 231.24 240.548 231.24 242.773C231.24 244.587 229.797 246.058 228.02 246.058C226.566 246.058 225.388 244.852 225.388 243.374C225.388 242.155 226.358 241.166 227.552 241.166C228.539 241.166 229.341 241.985 229.341 242.991H228.891C228.891 243.027 228.897 243.068 228.897 243.103C228.897 243.062 228.885 243.027 228.88 242.991H228.764C228.764 242.308 228.222 241.755 227.552 241.755C226.675 241.755 225.966 242.479 225.966 243.374C225.966 244.528 226.889 245.47 228.02 245.47C229.232 245.47 230.242 244.628 230.553 243.497C230.894 241.596 229.399 239.277 227.079 239.394C226.479 239.424 225.942 239.547 225.475 239.747C224.015 240.448 222.994 241.955 222.994 243.709C222.994 246.359 224.829 248.578 227.27 249.125C227.327 249.137 227.385 249.149 227.449 249.161C227.506 249.173 227.57 249.178 227.633 249.19C230.807 249.555 234.183 247.083 234.731 243.786C235.516 239.724 232.769 235.403 228.885 234.326C225.036 233.213 220.61 235.003 218.285 238.27C215.815 241.567 215.752 246.147 217.373 249.838C219.814 255.601 226.179 258.686 232.123 257.32C245.545 254.424 248.811 238.788 240.715 228.556C232.879 218.372 218.083 219.025 209 227.061C192.565 241.519 201.267 268.759 220.339 275.817C231.413 280.085 244.322 277.33 253.786 270.425C274.467 255.354 274.248 225.672 258.264 207.139C254.357 202.659 249.642 198.927 244.414 196.184C238.805 193.24 232.636 191.504 226.335 191.18C222.999 191.009 219.687 191.356 216.357 191.504C187.204 193.252 163.124 218.231 162.056 248.972C160.158 289.216 191.89 323.843 231.182 325.98Z" fill="black"/>
</svg>
